#!OML:ASF E:\emotionWalksFemale\Project 1\Capture day 1\Session 1\Female1.ASF
:FULLY-SPECIFIED
:DEGREES
2168
root 8.36506 15.2748 38.9456 0.589358 -6.2218 -359.02
lowerback 4.50817 0.757454 4.61291
upperback 1.3071 1.26909 4.22218
thorax -1.1782 0.623901 1.69123
lowerneck 1.22097 2.4984 2.86459
upperneck -4.00889 2.97986 -12.4137
head -1.26054 1.65289 -4.67824
rclavicle 9.93923e-016 1.59028e-014
rhumerus -29.2432 3.25954 -68.7468
rradius 31.4972
rwrist 21.826
rhand -1.23583 -51.6046
rfingers 7.12502
rthumb 24.4062 -80.0701
lclavicle 9.93923e-016 1.59028e-014
lhumerus -25.7479 -11.8303 97.5045
lradius 41.7937
lwrist -8.09024
lhand -5.85577 -39.6269
lfingers 7.12502
lthumb 19.971 -10.6331
rfemur -5.24006 20.6819 26.535
rtibia 26.8512
rfoot -18.9348 -24.8916
rtoes 2.48234
lfemur -11.7023 -3.46827 -19.3364
ltibia 30.185
lfoot -30.148 23.5183
ltoes 18.9152
2169
root 8.37127 15.2751 38.9401 0.539776 -6.32053 -358.937
lowerback 4.64156 0.658978 4.77397
upperback 1.24768 1.16006 4.26939
thorax -1.31223 0.566802 1.65413
lowerneck 1.22622 2.64392 3.05607
upperneck -3.83779 3.1855 -12.861
head -1.17884 1.75435 -4.87876
rclavicle -4.77083e-015 3.18055e-015
rhumerus -29.5245 3.42418 -68.0031
rradius 31.9364
rwrist 20.2379
rhand -1.73417 -51.3928
rfingers 7.12502
rthumb 23.9283 -79.9218
lclavicle -4.77083e-015 3.18055e-015
lhumerus -25.9465 -11.8756 97.4537
lradius 41.8034
lwrist -7.99688
lhand -5.90957 -39.3661
lfingers 7.12502
lthumb 19.9193 -10.367
rfemur -5.42372 20.469 26.3805
rtibia 27.1268
rfoot -19.2434 -24.5666
rtoes 4.19379
lfemur -11.7163 -3.2481 -19.4364
ltibia 30.2441
lfoot -29.9695 23.5064
ltoes 18.4734
2170
root 8.37834 15.2703 38.9389 0.407146 -6.48766 -358.903
lowerback 4.74998 0.558799 4.99753
upperback 1.26399 1.04539 4.32898
thorax -1.35365 0.508396 1.59668
lowerneck 1.19978 2.7374 3.02035
upperneck -3.69267 3.31971 -13.0711
head -1.11173 1.81931 -4.9459
rclavicle -5.96354e-016 -2.54444e-014
rhumerus -29.8082 3.36225 -67.2059
rradius 32.4392
rwrist 19.1376
rhand -1.75631 -50.7094
rfingers 7.12502
rthumb 23.9071 -79.2413
lclavicle -5.96354e-016 -2.54444e-014
lhumerus -26.1479 -11.7966 97.3587
lradius 41.8643
lwrist -8.04754
lhand -5.87517 -39.5062
lfingers 7.12502
lthumb 19.9524 -10.5105
rfemur -5.45024 20.2176 26.3069
rtibia 27.3507
rfoot -19.2562 -24.1632
rtoes 4.85165
lfemur -11.6677 -3.00478 -19.4758
ltibia 30.3855
lfoot -30.0595 23.3037
ltoes 18.5624
2171
root 8.38476 15.2623 38.9399 0.148742 -6.70584 -358.878
lowerback 4.99064 0.501637 5.19059
upperback 1.27595 0.998855 4.4065
thorax -1.4743 0.482667 1.56996
lowerneck 1.11814 2.79243 3.00309
upperneck -3.49142 3.39818 -13.6172
head -0.910935 1.86557 -4.60514
rclavicle -2.20651e-014 -4.6118e-014
rhumerus -30.2501 3.11809 -66.3461
rradius 33.1077
rwrist 18.273
rhand -1.8328 -50.5004
rfingers 7.12502
rthumb 23.8338 -79.0419
lclavicle -2.20651e-014 -4.6118e-014
lhumerus -26.3908 -11.5964 97.317
lradius 41.9018
lwrist -8.22127
lhand -5.84517 -39.7008
lfingers 7.12502
lthumb 19.9812 -10.7081
rfemur -5.30344 20.0254 26.3138
rtibia 27.5484
rfoot -19.45 -23.7725
rtoes 5.67863
lfemur -11.4976 -2.44217 -19.5086
ltibia 30.5818
lfoot -29.7486 23.2605
ltoes 16.8568
2172
root 8.38988 15.2517 38.9391 -0.117134 -6.86787 -358.923
lowerback 5.23685 0.437027 5.44037
upperback 1.28926 0.947485 4.50769
thorax -1.59631 0.454161 1.53702
lowerneck 1.33874 2.87805 2.94147
upperneck -3.54304 3.50323 -13.7082
head -0.953411 1.92978 -4.62747
rclavicle 1.35174e-014 -2.06736e-014
rhumerus -30.5157 2.76086 -65.4592
rradius 33.3504
rwrist 17.586
rhand -2.08998 -50.957
rfingers 7.12502
rthumb 23.5871 -79.5304
lclavicle 1.35174e-014 -2.06736e-014
lhumerus -26.5974 -11.4721 97.2965
lradius 41.8206
lwrist -8.21864
lhand -5.81424 -39.8392
lfingers 7.12502
lthumb 20.0109 -10.8496
rfemur -5.14258 19.9276 26.4315
rtibia 27.814
rfoot -19.6065 -23.4249
rtoes 7.67204
lfemur -11.3165 -1.60026 -19.4565
ltibia 30.7531
lfoot -28.9134 23.3804
ltoes 13.0618
